<svg width="350" height="47" viewBox="0 0 350 47" fill="none" xmlns="http://www.w3.org/2000/svg">
<rect x="305" y="1.49609" width="45" height="45" rx="22.5" fill="#FCDFE1"/>
<g clip-path="url(#clip0_1_247)">
<path d="M335 13.4961C336.105 13.4961 337 12.6007 337 11.4961C337 10.3915 336.105 9.49609 335 9.49609C333.895 9.49609 333 10.3915 333 11.4961C333 12.6007 333.895 13.4961 335 13.4961Z" stroke="black" stroke-width="2" stroke-linecap="round" stroke-linejoin="round"/>
<path d="M328 16.4961L329 10.4961L333.036 11.1173" stroke="black" stroke-width="2" stroke-linecap="round" stroke-linejoin="round"/>
<path d="M319.426 18.7311C321.715 17.3398 324.715 16.4961 328 16.4961C331.285 16.4961 334.285 17.3398 336.574 18.7311C336.836 18.3712 337.175 18.0743 337.567 17.8618C337.958 17.6493 338.392 17.5266 338.836 17.5026C339.281 17.4786 339.725 17.5539 340.137 17.7231C340.549 17.8922 340.919 18.151 341.218 18.4805C341.518 18.8101 341.74 19.2022 341.869 19.6283C341.998 20.0545 342.031 20.5041 341.965 20.9445C341.898 21.3849 341.735 21.805 341.486 22.1743C341.237 22.5437 340.909 22.853 340.526 23.0798C340.838 23.8474 340.999 24.6677 341 25.4961C341 30.4661 335.18 34.4961 328 34.4961C320.82 34.4961 315 30.4661 315 25.4961C315.001 24.6677 315.162 23.8474 315.474 23.0798C315.091 22.853 314.763 22.5437 314.514 22.1743C314.265 21.805 314.102 21.3849 314.035 20.9445C313.969 20.5041 314.002 20.0545 314.131 19.6283C314.26 19.2022 314.482 18.8101 314.782 18.4805C315.081 18.151 315.451 17.8922 315.863 17.7231C316.274 17.5539 316.719 17.4786 317.164 17.5026C317.608 17.5266 318.042 17.6493 318.433 17.8618C318.825 18.0743 319.164 18.3712 319.426 18.7311Z" stroke="black" stroke-width="2" stroke-linecap="round" stroke-linejoin="round"/>
<path d="M323 25.4961C324.105 25.4961 325 24.6007 325 23.4961C325 22.3915 324.105 21.4961 323 21.4961C321.895 21.4961 321 22.3915 321 23.4961C321 24.6007 321.895 25.4961 323 25.4961Z" fill="black"/>
<path d="M333 25.4961C334.105 25.4961 335 24.6007 335 23.4961C335 22.3915 334.105 21.4961 333 21.4961C331.895 21.4961 331 22.3915 331 23.4961C331 24.6007 331.895 25.4961 333 25.4961Z" fill="black"/>
<path d="M332 29.4961C330.769 30.1527 329.395 30.4961 328 30.4961C326.605 30.4961 325.231 30.1527 324 29.4961" stroke="black" stroke-width="2" stroke-linecap="round" stroke-linejoin="round"/>
</g>
<rect x="244" y="0.621094" width="45" height="45" rx="22.5" fill="#FCDFE1"/>
<g clip-path="url(#clip1_1_247)">
<path d="M271 23.6211L265 19.6211V27.6211L271 23.6211Z" stroke="black" stroke-width="2" stroke-linecap="round" stroke-linejoin="round"/>
<path d="M254 23.6211C254 27.3598 254.384 29.5523 254.676 30.6798C254.754 30.9865 254.903 31.2705 255.111 31.5084C255.319 31.7464 255.581 31.9315 255.875 32.0486C260.065 33.6648 267 33.6211 267 33.6211C267 33.6211 273.935 33.6648 278.125 32.0486C278.42 31.9321 278.683 31.7473 278.892 31.5093C279.101 31.2713 279.251 30.987 279.329 30.6798C279.621 29.5548 280.005 27.3598 280.005 23.6211C280.005 19.8823 279.621 17.6898 279.329 16.5623C279.252 16.254 279.102 15.9684 278.893 15.7293C278.684 15.4902 278.42 15.3044 278.125 15.1873C273.935 13.5773 267 13.6211 267 13.6211C267 13.6211 260.065 13.5773 255.875 15.1936C255.58 15.3107 255.316 15.4964 255.107 15.7356C254.898 15.9747 254.748 16.2602 254.671 16.5686C254.384 17.6886 254 19.8823 254 23.6211Z" stroke="black" stroke-width="2" stroke-linecap="round" stroke-linejoin="round"/>
</g>
<rect x="183" y="0.558594" width="45" height="45" rx="22.5" fill="#FCDFE1"/>
<g clip-path="url(#clip2_1_247)">
<path d="M211 20.3086C213.039 21.776 215.488 22.5633 218 22.5586V17.5586C216.143 17.5586 214.363 16.8211 213.05 15.5083C211.737 14.1956 211 12.4151 211 10.5586H206V27.0586C206 27.6849 205.831 28.2996 205.513 28.8387C205.194 29.3778 204.736 29.8215 204.188 30.1234C203.639 30.4254 203.019 30.5746 202.393 30.5555C201.767 30.5364 201.158 30.3496 200.629 30.0148C200.099 29.6799 199.67 29.2091 199.384 28.6516C199.099 28.0941 198.968 27.4702 199.006 26.8451C199.044 26.2199 199.249 25.6164 199.6 25.0975C199.951 24.5786 200.434 24.1633 201 23.8948V18.5586C197.021 19.2673 194 22.8761 194 27.0586C194 29.3129 194.896 31.4749 196.49 33.069C198.084 34.6631 200.246 35.5586 202.5 35.5586C204.754 35.5586 206.916 34.6631 208.51 33.069C210.104 31.4749 211 29.3129 211 27.0586V20.3086Z" stroke="black" stroke-width="2" stroke-linecap="round" stroke-linejoin="round"/>
</g>
<rect x="122" y="0.527344" width="45" height="45" rx="22.5" fill="#FCDFE1"/>
<g clip-path="url(#clip3_1_247)">
<path d="M145 28.5273C147.761 28.5273 150 26.2888 150 23.5273C150 20.7659 147.761 18.5273 145 18.5273C142.239 18.5273 140 20.7659 140 23.5273C140 26.2888 142.239 28.5273 145 28.5273Z" stroke="black" stroke-width="2" stroke-miterlimit="10"/>
<path d="M151 11.5273H139C135.686 11.5273 133 14.2136 133 17.5273V29.5273C133 32.8411 135.686 35.5273 139 35.5273H151C154.314 35.5273 157 32.8411 157 29.5273V17.5273C157 14.2136 154.314 11.5273 151 11.5273Z" stroke="black" stroke-width="2" stroke-linecap="round" stroke-linejoin="round"/>
<path d="M151.5 18.5273C152.328 18.5273 153 17.8558 153 17.0273C153 16.1989 152.328 15.5273 151.5 15.5273C150.672 15.5273 150 16.1989 150 17.0273C150 17.8558 150.672 18.5273 151.5 18.5273Z" fill="black"/>
</g>
<rect x="61" y="0.511719" width="45" height="45" rx="22.5" fill="#FCDFE1"/>
<g clip-path="url(#clip4_1_247)">
<path d="M95 11.5117H73C72.4477 11.5117 72 11.9594 72 12.5117V34.5117C72 35.064 72.4477 35.5117 73 35.5117H95C95.5523 35.5117 96 35.064 96 34.5117V12.5117C96 11.9594 95.5523 11.5117 95 11.5117Z" stroke="black" stroke-width="2" stroke-linecap="round" stroke-linejoin="round"/>
<path d="M83 21.5117V29.5117" stroke="black" stroke-width="2" stroke-linecap="round" stroke-linejoin="round"/>
<path d="M79 21.5117V29.5117" stroke="black" stroke-width="2" stroke-linecap="round" stroke-linejoin="round"/>
<path d="M83 25.0117C83 24.0835 83.3687 23.1932 84.0251 22.5368C84.6815 21.8805 85.5717 21.5117 86.5 21.5117C87.4283 21.5117 88.3185 21.8805 88.9749 22.5368C89.6313 23.1932 90 24.0835 90 25.0117V29.5117" stroke="black" stroke-width="2" stroke-linecap="round" stroke-linejoin="round"/>
<path d="M79 19.5117C79.8284 19.5117 80.5 18.8401 80.5 18.0117C80.5 17.1833 79.8284 16.5117 79 16.5117C78.1716 16.5117 77.5 17.1833 77.5 18.0117C77.5 18.8401 78.1716 19.5117 79 19.5117Z" fill="black"/>
</g>
<rect y="0.503906" width="45" height="45" rx="22.5" fill="#FCDFE1"/>
<g clip-path="url(#clip5_1_247)">
<path d="M23 35.5039C29.6274 35.5039 35 30.1313 35 23.5039C35 16.8765 29.6274 11.5039 23 11.5039C16.3726 11.5039 11 16.8765 11 23.5039C11 30.1313 16.3726 35.5039 23 35.5039Z" stroke="black" stroke-width="2" stroke-linecap="round" stroke-linejoin="round"/>
<path d="M28 18.5039H26C25.2044 18.5039 24.4413 18.82 23.8787 19.3826C23.3161 19.9452 23 20.7083 23 21.5039V35.5039" stroke="black" stroke-width="2" stroke-linecap="round" stroke-linejoin="round"/>
<path d="M19 25.5039H27" stroke="black" stroke-width="2" stroke-linecap="round" stroke-linejoin="round"/>
</g>
<defs>
<clipPath id="clip0_1_247">
<rect width="32" height="32" fill="white" transform="translate(312 7.49609)"/>
</clipPath>
<clipPath id="clip1_1_247">
<rect width="32" height="32" fill="white" transform="translate(251 7.62109)"/>
</clipPath>
<clipPath id="clip2_1_247">
<rect width="32" height="32" fill="white" transform="translate(190 7.55859)"/>
</clipPath>
<clipPath id="clip3_1_247">
<rect width="32" height="32" fill="white" transform="translate(129 7.52734)"/>
</clipPath>
<clipPath id="clip4_1_247">
<rect width="32" height="32" fill="white" transform="translate(68 7.51172)"/>
</clipPath>
<clipPath id="clip5_1_247">
<rect width="32" height="32" fill="white" transform="translate(7 7.50391)"/>
</clipPath>
</defs>
</svg>
