<svg width="209" height="119" viewBox="0 0 209 119" fill="none" xmlns="http://www.w3.org/2000/svg">
<path d="M7.36287 72.0739L7.43553 72.1467L7.51234 72.2151C9.0953 73.6251 11.0336 74.5449 13.2609 74.5449C14.8304 74.5449 16.3478 74.2597 17.7613 73.6428H49.2664H52.7664V70.1428V63.2273C54.8749 66.6356 57.7009 69.3658 61.2113 71.376L61.2433 71.3943L61.2756 71.412C65.2849 73.597 69.8381 74.6351 74.8324 74.6351C79.8249 74.6351 84.3594 73.5976 88.322 71.3994L88.3312 71.3943L88.3403 71.3891C92.3374 69.1404 95.4302 65.9773 97.5488 61.9479C99.7119 57.888 100.746 53.3124 100.746 48.3134C100.746 43.3253 99.7162 38.7767 97.5489 34.7691C95.4363 30.6909 92.345 27.5181 88.3313 25.3227C84.3684 23.0616 79.8298 21.9918 74.8324 21.9918C69.8237 21.9918 65.2585 23.0663 61.2435 25.3229C57.2798 27.524 54.1977 30.6974 52.0312 34.7594L52.0259 34.7692L52.0207 34.7791C49.9165 38.7857 48.919 43.33 48.919 48.3134C48.919 51.0691 49.2239 53.696 49.8501 56.1792H49.2664H25.7623V7V3.5H22.2623H10.2004H6.70041V7V58.9575C6.70041 59.4293 6.66626 59.7779 6.62162 60.024C6.5997 60.1448 6.57687 60.2319 6.55844 60.2904C6.5411 60.3454 6.5292 60.3702 6.52852 60.3717C6.5285 60.3717 6.52848 60.3717 6.52848 60.3717L6.49963 60.4296L6.4729 60.4885C6.37379 60.707 6.24577 60.88 6.07212 61.0346L5.99531 61.1031L5.92266 61.1759C5.51055 61.5888 5.15207 62.0434 4.84647 62.5324C4.2918 63.3422 4 64.2853 4 65.2718C4 66.0377 4.21392 66.7501 4.35154 67.1661C4.94877 69.0341 5.97012 70.6782 7.36287 72.0739ZM79.7628 40.7472L79.7758 40.7648L79.7891 40.7821C80.899 42.2396 81.684 44.6011 81.684 48.3134C81.684 52.0037 80.9081 54.4158 79.776 55.952C78.8276 57.1874 77.3829 57.9832 74.8324 57.9832C72.2819 57.9832 70.8371 57.1874 69.8887 55.952C68.7566 54.4158 67.9808 52.0037 67.9808 48.3134C67.9808 44.6011 68.7657 42.2396 69.8757 40.7821L69.8889 40.7648L69.9019 40.7472C70.8634 39.4515 72.3045 38.6437 74.8324 38.6437C77.3603 38.6437 78.8014 39.4515 79.7628 40.7472ZM165.465 71.376L165.497 71.3943L165.53 71.412C169.539 73.597 174.092 74.6351 179.087 74.6351C184.079 74.6351 188.614 73.5976 192.576 71.3994L192.585 71.3943L192.594 71.3891C196.591 69.1405 199.684 65.9776 201.803 61.9485C203.966 57.8884 205 53.3126 205 48.3134C205 43.3251 203.97 38.7764 201.803 34.7687C199.69 30.6907 196.599 27.5181 192.586 25.3228C188.623 23.0617 184.084 21.9918 179.087 21.9918C174.078 21.9918 169.513 23.0663 165.498 25.3229C161.534 27.524 158.452 30.6974 156.285 34.7594L156.28 34.7692L156.275 34.7791C154.171 38.7857 153.173 43.33 153.173 48.3134C153.173 53.2985 154.171 57.8623 156.263 61.9159L156.28 61.9482L156.297 61.9801C158.465 65.9747 161.537 69.1263 165.465 71.376ZM184.017 40.7472L184.03 40.7648L184.043 40.7821C185.153 42.2396 185.938 44.6011 185.938 48.3134C185.938 52.0039 185.162 54.4161 184.03 55.9523C183.082 57.1875 181.637 57.9832 179.087 57.9832C176.536 57.9832 175.091 57.1874 174.143 55.9522C173.011 54.416 172.235 52.0039 172.235 48.3134C172.235 44.6011 173.02 42.2396 174.13 40.7821L174.143 40.7648L174.156 40.7472C175.118 39.4515 176.559 38.6437 179.087 38.6437C181.614 38.6437 183.056 39.4515 184.017 40.7472ZM109.637 96.9206C108.554 97.2539 107.605 97.3512 106.777 97.2822C105.467 97.173 103.589 96.2135 101.304 92.8555C99.7272 90.537 98.626 88.1972 97.9615 85.8328C96.9991 82.4082 93.5064 79.4811 89.3395 80.3659L87.2385 80.812C83.7454 81.5538 81.0977 84.9639 81.9112 88.8251C82.9444 93.7294 84.8234 98.2089 87.5587 102.23C92.2722 109.158 97.9722 113.692 104.772 115.043C111.591 116.485 118.528 114.468 125.377 109.789L148.284 94.1396C149.935 93.0117 151.224 92.3371 152.182 91.9942C152.288 91.956 152.396 91.9191 152.505 91.8836L151.423 88.5553L152.506 91.8836C155.75 90.8279 158.885 87.3775 157.899 83.0459L156.892 78.6238C156.36 76.2874 154.294 74.0318 151.291 74.0496C151.279 74.0496 151.163 74.0442 150.957 73.9588C150.757 73.8755 150.54 73.7431 150.345 73.5742C150.148 73.4039 150.025 73.2407 149.962 73.1277C149.946 73.0982 149.936 73.0764 149.93 73.0621C149.822 68.8134 148.486 64.8454 146.017 61.2173L143.124 63.1859L146.017 61.2172C143.546 57.5849 140.455 54.8201 136.724 53.069C132.96 51.302 128.862 50.762 124.54 51.3491C120.155 51.9447 115.828 53.7953 111.576 56.6998C105.18 61.0695 100.955 66.4139 99.5865 72.8296L99.5837 72.8428L99.5809 72.8561C98.2852 79.1673 99.7747 85.2765 103.671 91.0038C105.315 93.4198 107.298 95.4138 109.637 96.9206ZM135.03 78.0514L135.014 78.0999L135.001 78.1488C134.497 79.9384 133.184 81.7858 130.53 83.5992L129.786 84.1073C127.441 85.709 125.207 86.3627 123.014 86.2942C121.272 86.2101 119.788 85.4361 118.434 83.4456C116.889 81.1745 116.646 79.4488 116.986 78.0435C117.431 76.5653 118.869 74.6062 122.218 72.318C125.415 70.1342 127.754 69.5103 129.393 69.6415L129.416 69.6434L129.439 69.645C130.989 69.7482 132.419 70.4876 133.789 72.5021C135.327 74.7632 135.51 76.5173 135.03 78.0514Z" fill="#E4A104" stroke="#5C2C55" stroke-width="7"/>
</svg>
