<svg width="527" height="171" viewBox="0 0 527 171" fill="none" xmlns="http://www.w3.org/2000/svg">
<g filter="url(#filter0_i_2_65)">
<path d="M0.0860867 6.89809C5.25576 5.92993 10.9999 5.20382 17.3183 4.71974C23.6368 4.11464 29.9553 3.8121 36.2738 3.8121C42.7072 3.8121 49.198 4.35668 55.7463 5.44586C62.2945 6.41401 68.1535 8.47133 73.3232 11.6178C78.6077 14.6433 82.9158 18.9395 86.2474 24.5064C89.5789 29.9522 91.2447 37.2134 91.2447 46.2898C91.2447 54.2771 89.8087 61.1147 86.9366 66.8026C84.0646 72.3694 80.2161 76.9077 75.391 80.4172C70.6809 83.9268 65.2815 86.5287 59.1927 88.2229C53.104 89.7962 46.8429 90.5828 40.4096 90.5828C39.8352 90.5828 38.8587 90.5828 37.4801 90.5828C36.1015 90.5828 34.608 90.5828 32.9997 90.5828C31.5062 90.4618 30.0702 90.3408 28.6916 90.2197C27.3131 90.0987 26.2791 89.9777 25.5898 89.8567V132.697H0.0860867V6.89809ZM37.9971 27.4108C35.5845 27.4108 33.2295 27.4713 30.9318 27.5924C28.7491 27.7134 26.9684 27.9554 25.5898 28.3185V66.0764C26.0494 66.1975 26.7961 66.3185 27.83 66.4395C28.864 66.5605 29.9553 66.6815 31.1041 66.8026C32.253 66.8026 33.2869 66.8631 34.206 66.9841C35.2399 66.9841 36.0441 66.9841 36.6185 66.9841C39.95 66.9841 43.2816 66.742 46.6132 66.258C49.9447 65.7739 52.8742 64.7452 55.4016 63.172C58.0439 61.5987 60.1692 59.4809 61.7776 56.8185C63.3859 54.035 64.1901 50.3439 64.1901 45.7452C64.1901 41.8726 63.4433 38.7866 61.9499 36.4873C60.4564 34.0669 58.446 32.1911 55.9186 30.8599C53.5061 29.5287 50.6915 28.621 47.4748 28.1369C44.373 27.6529 41.2137 27.4108 37.9971 27.4108Z" fill="#F8918B"/>
<path d="M111.082 37.3949H135.207V132.697H111.082V37.3949ZM107.463 13.6146C107.463 9.74204 108.784 6.53503 111.427 3.99362C114.069 1.33121 117.803 0 122.628 0C127.568 0 131.474 1.33121 134.346 3.99362C137.218 6.65604 138.654 9.86305 138.654 13.6146C138.654 17.1242 137.218 20.1497 134.346 22.6911C131.474 25.2325 127.568 26.5032 122.628 26.5032C117.803 26.5032 114.069 25.2325 111.427 22.6911C108.784 20.1497 107.463 17.1242 107.463 13.6146Z" fill="#F8918B"/>
<path d="M223.847 132.697V80.4172C223.847 72.1879 222.641 66.258 220.228 62.6274C217.816 58.9968 213.565 57.1815 207.476 57.1815C202.307 57.1815 197.884 58.6943 194.207 61.7197C190.646 64.6242 188.176 68.3758 186.798 72.9745C186.798 82.8981 186.798 92.8822 186.798 102.927C186.912 112.85 186.97 122.774 186.97 132.697H162.845V37.3949H181.8L184.385 51.0096H186.97C189.957 46.5319 193.92 42.7197 198.86 39.5732C203.8 36.3057 210.233 34.672 218.16 34.672C222.985 34.672 227.236 35.3376 230.912 36.6688C234.703 37.879 237.805 40.0573 240.218 43.2038C242.745 46.2293 244.641 50.344 245.904 55.5478C247.283 60.7516 247.972 67.2866 247.972 75.1529V132.697H223.847Z" fill="white"/>
<path d="M275.664 37.3949H299.789V132.697H275.664V37.3949ZM272.045 13.6146C272.045 9.74204 273.366 6.53503 276.008 3.99362C278.65 1.33121 282.384 0 287.209 0C292.149 0 296.055 1.33121 298.927 3.99362C301.799 6.65604 303.235 9.86305 303.235 13.6146C303.235 17.1242 301.799 20.1497 298.927 22.6911C296.055 25.2325 292.149 26.5032 287.209 26.5032C282.384 26.5032 278.65 25.2325 276.008 22.6911C273.366 20.1497 272.045 17.1242 272.045 13.6146Z" fill="white"/>
<path d="M409.279 129.067C409.279 143.105 405.488 153.452 397.906 160.108C390.324 166.764 379.583 170.092 365.682 170.092C356.721 170.092 349.484 169.427 343.969 168.096C338.57 166.885 334.377 165.494 331.39 163.92C332.883 159.08 333.974 155.207 334.664 152.303C335.468 149.519 336.042 147.401 336.387 145.949C336.732 144.497 336.961 143.589 337.076 143.226C337.191 142.863 337.249 142.682 337.249 142.682C340.006 144.134 343.337 145.586 347.243 147.038C351.149 148.611 355.917 149.398 361.546 149.398C366.256 149.398 370.162 148.914 373.264 147.946C376.366 146.978 378.836 145.525 380.674 143.589C382.512 141.774 383.776 139.535 384.465 136.873C385.269 134.21 385.671 131.245 385.671 127.978V120.898H383.603C381.306 124.408 378.147 126.889 374.126 128.341C370.105 129.793 365.107 130.519 359.134 130.519C346.841 130.519 337.593 126.949 331.39 119.809C325.301 112.669 322.257 101.172 322.257 85.3185C322.257 68.6178 326.277 56.0318 334.319 47.5605C342.476 39.0892 354.538 34.8535 370.507 34.8535C378.893 34.8535 386.361 35.4586 392.909 36.6688C399.572 37.758 405.029 39.0287 409.279 40.4809V129.067ZM364.82 110.732C370.105 110.732 374.413 109.704 377.744 107.646C381.191 105.589 383.661 103.048 385.154 100.022V58.9968C380.904 57.0605 375.504 56.0924 368.956 56.0924C361.948 56.0924 356.549 58.2707 352.758 62.6274C348.967 66.9841 347.071 74.1847 347.071 84.2293C347.071 93.4268 348.679 100.143 351.896 104.379C355.113 108.615 359.421 110.732 364.82 110.732Z" fill="white"/>
<path d="M458.243 37.3949V90.2197C458.243 98.086 459.277 103.834 461.345 107.465C463.413 111.096 467.376 112.911 473.235 112.911C478.29 112.911 482.541 111.519 485.987 108.736C489.434 105.952 491.961 102.443 493.569 98.207V37.3949H517.695V103.653C517.695 108.736 517.924 113.818 518.384 118.901C518.958 123.984 519.705 128.583 520.624 132.697H517.178C510.055 135.965 506.551 140.443 506.666 146.131C506.666 148.551 507.47 150.548 509.078 152.121C510.687 153.815 512.87 154.662 515.627 154.662C516.89 154.662 518.097 154.541 519.245 154.299C520.394 154.057 521.716 153.513 523.209 152.666L527 164.283C524.932 165.857 521.888 167.369 517.867 168.822C513.846 170.274 509.481 171 504.77 171C497.763 171 492.421 169.366 488.744 166.099C485.068 162.831 483.23 158.596 483.23 153.392C483.23 148.551 484.953 144.255 488.4 140.503C491.961 136.873 496.671 134.029 502.53 131.971L498.222 117.812H496.327C493.34 122.895 489.089 127.131 483.575 130.519C478.06 133.787 471.742 135.42 464.619 135.42C459.679 135.42 455.314 134.755 451.523 133.424C447.732 132.092 444.515 129.914 441.873 126.889C439.345 123.742 437.392 119.627 436.014 114.545C434.75 109.462 434.118 103.169 434.118 95.6656V37.3949H458.243Z" fill="white"/>
<path d="M8.05608 156.411H6.37593V169.845H0V138.077H6.37593V152.055L7.88376 151.374L16.9307 138.077H24.2113L14.6474 151.374L12.1487 153.098L14.7336 154.914L25.6761 169.845H17.7923L8.05608 156.411Z" fill="#F8918B"/>
<path d="M26.9745 157.954C26.9745 154.021 27.9654 150.935 29.9471 148.696C31.9288 146.458 34.7578 145.338 38.434 145.338C40.3583 145.338 42.0384 145.656 43.4744 146.291C44.9104 146.927 46.1023 147.819 47.0501 148.969C47.9979 150.088 48.7015 151.419 49.1611 152.962C49.6493 154.475 49.8934 156.139 49.8934 157.954C49.8934 159.891 49.635 161.645 49.118 163.219C48.601 164.762 47.8543 166.078 46.8778 167.167C45.9013 168.256 44.695 169.088 43.259 169.663C41.8517 170.238 40.2434 170.525 38.434 170.525C36.481 170.525 34.7865 170.208 33.3505 169.572C31.9144 168.937 30.7226 168.059 29.7748 166.94C28.827 165.79 28.1234 164.459 27.6638 162.946C27.2043 161.403 26.9745 159.739 26.9745 157.954ZM33.1781 157.954C33.1781 158.953 33.2787 159.891 33.4797 160.768C33.6808 161.645 33.9823 162.417 34.3844 163.083C34.8152 163.718 35.3609 164.232 36.0215 164.626C36.682 165.019 37.4862 165.216 38.434 165.216C41.9379 165.216 43.6898 162.795 43.6898 157.954C43.6898 156.895 43.5893 155.927 43.3883 155.05C43.2159 154.142 42.9144 153.371 42.4836 152.735C42.0815 152.07 41.5358 151.555 40.8465 151.192C40.1859 150.829 39.3818 150.648 38.434 150.648C36.7969 150.648 35.5045 151.223 34.5567 152.372C33.6377 153.522 33.1781 155.383 33.1781 157.954Z" fill="#F8918B"/>
<path d="M71.3567 169.845V156.774C71.3567 154.717 71.0551 153.235 70.452 152.327C69.8489 151.419 68.7862 150.966 67.264 150.966C65.9716 150.966 64.8659 151.344 63.9468 152.1C63.0565 152.826 62.439 153.764 62.0943 154.914C62.0943 157.395 62.0943 159.891 62.0943 162.402C62.1231 164.883 62.1374 167.364 62.1374 169.845H56.1061V146.019H60.845L61.4912 149.423H62.1374C62.8842 148.303 63.875 147.35 65.11 146.563C66.345 145.747 67.9533 145.338 69.935 145.338C71.1413 145.338 72.2039 145.505 73.123 145.837C74.0708 146.14 74.8462 146.684 75.4493 147.471C76.0812 148.227 76.5551 149.256 76.871 150.557C77.2156 151.858 77.388 153.492 77.388 155.458V169.845H71.3567Z" fill="#F8918B"/>
<path d="M92.8408 158.363L93.7455 162.039H94.4348L95.081 158.272L99.3029 146.019H105.808L95.4687 170.071H92.0223L81.2521 146.019H88.2743L92.8408 158.363Z" fill="#F8918B"/>
<path d="M128.688 167.666C127.711 168.453 126.376 169.134 124.681 169.708C123.015 170.253 121.22 170.525 119.296 170.525C115.419 170.525 112.575 169.406 110.766 167.167C108.957 164.928 108.052 161.857 108.052 157.954C108.052 153.809 109.072 150.678 111.111 148.56C113.15 146.412 116.022 145.338 119.727 145.338C120.933 145.338 122.125 145.505 123.303 145.837C124.48 146.14 125.528 146.669 126.447 147.426C127.366 148.152 128.099 149.15 128.645 150.421C129.219 151.661 129.506 153.204 129.506 155.05C129.506 155.685 129.463 156.381 129.377 157.138C129.319 157.894 129.205 158.681 129.032 159.497H113.954C114.098 161.555 114.658 163.083 115.634 164.081C116.639 165.049 118.262 165.533 120.502 165.533C121.852 165.533 123.058 165.337 124.121 164.943C125.212 164.52 126.045 164.096 126.62 163.673L128.688 167.666ZM119.641 150.33C117.86 150.33 116.539 150.845 115.677 151.873C114.816 152.872 114.313 154.157 114.169 155.731H123.906C124.021 154.067 123.733 152.751 123.044 151.782C122.355 150.814 121.22 150.33 119.641 150.33Z" fill="#F8918B"/>
<path d="M149.571 151.828C148.709 151.525 147.848 151.374 146.986 151.374C145.722 151.374 144.674 151.692 143.841 152.327C143.037 152.962 142.506 153.764 142.247 154.732V169.845H136.216V146.019H140.955L141.601 149.332H142.161C142.735 148.091 143.497 147.138 144.444 146.473C145.421 145.807 146.527 145.474 147.762 145.474C148.537 145.474 149.427 145.641 150.433 145.973L149.571 151.828Z" fill="#F8918B"/>
<path d="M153.767 146.019H157.214V142.751L163.245 141.072V146.019H169.319V151.329H163.245V159.588C163.245 161.494 163.417 162.871 163.762 163.718C164.135 164.535 164.853 164.943 165.916 164.943C166.577 164.943 167.137 164.898 167.596 164.807C168.056 164.686 168.544 164.505 169.061 164.263L170.31 169.028C169.391 169.451 168.329 169.814 167.122 170.117C165.945 170.419 164.796 170.571 163.676 170.571C161.436 170.571 159.799 169.996 158.765 168.846C157.731 167.666 157.214 165.79 157.214 163.219V151.329H153.767V146.019Z" fill="#F8918B"/>
<path d="M175.019 147.653C176.311 147.048 177.891 146.548 179.758 146.155C181.653 145.762 183.606 145.565 185.617 145.565C187.196 145.565 188.517 145.762 189.58 146.155C190.671 146.548 191.533 147.123 192.165 147.88C192.797 148.606 193.242 149.498 193.5 150.557C193.788 151.586 193.931 152.735 193.931 154.006C193.931 155.549 193.874 157.077 193.759 158.59C193.644 160.102 193.587 161.706 193.587 163.4C193.587 164.55 193.658 165.669 193.802 166.759C193.946 167.848 194.175 168.891 194.491 169.89H189.58L188.589 166.35H188.072C187.325 167.409 186.378 168.317 185.229 169.073C184.08 169.829 182.601 170.208 180.792 170.208C179.7 170.208 178.695 170.041 177.776 169.708C176.886 169.376 176.11 168.907 175.45 168.302C174.818 167.666 174.315 166.925 173.942 166.078C173.597 165.231 173.425 164.308 173.425 163.309C173.425 160.617 174.272 158.59 175.967 157.228C177.69 155.837 180.289 155.141 183.764 155.141C184.568 155.141 185.373 155.216 186.177 155.368C186.981 155.489 187.541 155.579 187.857 155.64C187.943 155.005 187.986 154.46 187.986 154.006C187.986 152.856 187.713 152.009 187.168 151.465C186.622 150.92 185.602 150.648 184.109 150.648C182.73 150.648 181.38 150.829 180.059 151.192C178.767 151.525 177.618 151.949 176.613 152.463L175.019 147.653ZM182.903 165.125C184.252 165.125 185.329 164.792 186.134 164.126C186.938 163.461 187.527 162.765 187.9 162.039V159.316C187.756 159.255 187.527 159.195 187.211 159.134C186.923 159.074 186.593 159.013 186.22 158.953C185.875 158.892 185.516 158.847 185.143 158.817C184.798 158.786 184.482 158.771 184.195 158.771C182.644 158.771 181.495 159.074 180.749 159.679C180.002 160.254 179.628 160.98 179.628 161.857C179.628 162.946 179.916 163.763 180.49 164.308C181.093 164.852 181.897 165.125 182.903 165.125Z" fill="#F8918B"/>
<path d="M209.445 158.363L210.349 162.039H211.039L211.685 158.272L215.907 146.019H222.412L212.073 170.071H208.626L197.856 146.019H204.878L209.445 158.363Z" fill="#F8918B"/>
<path d="M227.017 146.019H233.048V169.845H227.017V146.019ZM226.112 140.074C226.112 139.106 226.443 138.304 227.103 137.669C227.764 137.003 228.697 136.67 229.904 136.67C231.139 136.67 232.115 137.003 232.833 137.669C233.551 138.334 233.91 139.136 233.91 140.074C233.91 140.951 233.551 141.708 232.833 142.343C232.115 142.978 231.139 143.296 229.904 143.296C228.697 143.296 227.764 142.978 227.103 142.343C226.443 141.708 226.112 140.951 226.112 140.074Z" fill="#F8918B"/>
<path d="M255.381 169.845V157.41C255.381 155.11 255.151 153.462 254.691 152.463C254.232 151.465 253.284 150.966 251.848 150.966C250.642 150.966 249.68 151.283 248.962 151.919C248.244 152.524 247.684 153.325 247.282 154.324V169.845H241.25V146.019H245.903L246.592 149.332H247.152C247.526 148.817 247.956 148.318 248.445 147.834C248.933 147.35 249.464 146.927 250.039 146.563C250.642 146.2 251.302 145.913 252.02 145.701C252.767 145.459 253.6 145.338 254.519 145.338C256.041 145.338 257.305 145.701 258.31 146.427C259.344 147.123 260.163 148.303 260.766 149.967C261.599 148.515 262.604 147.38 263.781 146.563C264.988 145.747 266.381 145.338 267.96 145.338C269.339 145.338 270.502 145.505 271.45 145.837C272.426 146.17 273.216 146.745 273.819 147.562C274.422 148.379 274.853 149.483 275.112 150.875C275.399 152.266 275.542 154.006 275.542 156.094V169.845H269.511V157.092C269.511 156.094 269.468 155.216 269.382 154.46C269.296 153.704 269.123 153.068 268.865 152.554C268.606 152.009 268.233 151.616 267.745 151.374C267.285 151.102 266.668 150.966 265.892 150.966C264.686 150.966 263.71 151.298 262.963 151.964C262.245 152.599 261.728 153.492 261.412 154.641V169.845H255.381Z" fill="#F8918B"/>
<path d="M282.842 147.653C284.134 147.048 285.714 146.548 287.58 146.155C289.476 145.762 291.429 145.565 293.439 145.565C295.019 145.565 296.34 145.762 297.403 146.155C298.494 146.548 299.356 147.123 299.988 147.88C300.619 148.606 301.065 149.498 301.323 150.557C301.61 151.586 301.754 152.735 301.754 154.006C301.754 155.549 301.697 157.077 301.582 158.59C301.467 160.102 301.409 161.706 301.409 163.4C301.409 164.55 301.481 165.669 301.625 166.759C301.768 167.848 301.998 168.891 302.314 169.89H297.403L296.412 166.35H295.895C295.148 167.409 294.2 168.317 293.052 169.073C291.903 169.829 290.424 170.208 288.614 170.208C287.523 170.208 286.518 170.041 285.599 169.708C284.708 169.376 283.933 168.907 283.272 168.302C282.641 167.666 282.138 166.925 281.765 166.078C281.42 165.231 281.248 164.308 281.248 163.309C281.248 160.617 282.095 158.59 283.789 157.228C285.513 155.837 288.112 155.141 291.587 155.141C292.391 155.141 293.195 155.216 293.999 155.368C294.804 155.489 295.364 155.579 295.68 155.64C295.766 155.005 295.809 154.46 295.809 154.006C295.809 152.856 295.536 152.009 294.99 151.465C294.445 150.92 293.425 150.648 291.932 150.648C290.553 150.648 289.203 150.829 287.882 151.192C286.59 151.525 285.441 151.949 284.436 152.463L282.842 147.653ZM290.725 165.125C292.075 165.125 293.152 164.792 293.956 164.126C294.761 163.461 295.349 162.765 295.723 162.039V159.316C295.579 159.255 295.349 159.195 295.033 159.134C294.746 159.074 294.416 159.013 294.043 158.953C293.698 158.892 293.339 158.847 292.966 158.817C292.621 158.786 292.305 158.771 292.018 158.771C290.467 158.771 289.318 159.074 288.571 159.679C287.825 160.254 287.451 160.98 287.451 161.857C287.451 162.946 287.738 163.763 288.313 164.308C288.916 164.852 289.72 165.125 290.725 165.125Z" fill="#F8918B"/>
<path d="M309.254 163.673C309.656 163.884 310.116 164.096 310.633 164.308C311.179 164.52 311.753 164.716 312.356 164.898C312.988 165.079 313.62 165.231 314.252 165.352C314.912 165.473 315.573 165.533 316.233 165.533C317.239 165.533 318.014 165.367 318.56 165.034C319.134 164.701 319.421 164.081 319.421 163.173C319.421 162.447 319.048 161.918 318.301 161.585C317.555 161.222 316.636 160.874 315.544 160.541C314.74 160.299 313.893 160.012 313.002 159.679C312.141 159.346 311.337 158.907 310.59 158.363C309.872 157.788 309.269 157.047 308.78 156.139C308.321 155.231 308.091 154.082 308.091 152.69C308.091 150.3 308.795 148.485 310.202 147.244C311.609 145.973 313.634 145.338 316.277 145.338C318 145.338 319.608 145.505 321.102 145.837C322.624 146.14 323.844 146.503 324.763 146.927L323.514 151.737C322.767 151.434 321.805 151.132 320.628 150.829C319.479 150.497 318.301 150.33 317.095 150.33C316.09 150.33 315.343 150.497 314.855 150.829C314.367 151.132 314.122 151.677 314.122 152.463C314.122 153.159 314.496 153.688 315.243 154.052C316.018 154.384 316.951 154.717 318.043 155.05C318.847 155.292 319.68 155.579 320.542 155.912C321.432 156.215 322.236 156.638 322.954 157.183C323.672 157.727 324.261 158.438 324.72 159.316C325.209 160.163 325.453 161.237 325.453 162.538C325.453 165.079 324.663 167.046 323.083 168.438C321.532 169.829 319.192 170.525 316.061 170.525C314.367 170.525 312.787 170.359 311.322 170.026C309.857 169.723 308.666 169.27 307.747 168.665L309.254 163.673Z" fill="#F8918B"/>
</g>
<defs>
<filter id="filter0_i_2_65" x="0" y="0" width="530" height="174.4" filterUnits="userSpaceOnUse" color-interpolation-filters="sRGB">
<feFlood flood-opacity="0" result="BackgroundImageFix"/>
<feBlend mode="normal" in="SourceGraphic" in2="BackgroundImageFix" result="shape"/>
<feColorMatrix in="SourceAlpha" type="matrix" values="0 0 0 0 0 0 0 0 0 0 0 0 0 0 0 0 0 0 127 0" result="hardAlpha"/>
<feOffset dx="3" dy="6"/>
<feGaussianBlur stdDeviation="1.7"/>
<feComposite in2="hardAlpha" operator="arithmetic" k2="-1" k3="1"/>
<feColorMatrix type="matrix" values="0 0 0 0 0.220144 0 0 0 0 0.0906475 0 0 0 0 0.0798561 0 0 0 0.25 0"/>
<feBlend mode="normal" in2="shape" result="effect1_innerShadow_2_65"/>
</filter>
</defs>
</svg>
